# xmcd
#
# Track frame offsets:
#	150
#	4088
#	21117
#	39860
#	58160
#	77430
#	94960
#	108476
#	130943
#	146503
#
# Disc length: 2170 seconds
#
# Revision: 0
# Processed by: cddbd v1.4PL0 Copyright (c) Steve Scherf et al.
# Submitted via: EasyCDDAExtractor 4.6.9.1
#
DISCID=7908780a
DTITLE=Zaklonisce Prepeva - Odoh Majko U Rokere
DYEAR=1900
DGENRE=Alternative
TTITLE0=Intro (by Elvis J. Kurtovic)
TTITLE1=Odoh Majko U Rokere
TTITLE2=Mico Muriqui Ide U Holivud
TTITLE3=Hasan Iz Azila
TTITLE4=Prokleta Je Dusa Slovenska
TTITLE5=Moja Kalinka
TTITLE6=Ritam Nereda
TTITLE7=Sretan Sam (Da Postoji Neko)
TTITLE8=Mi Smo Iz Gorice
TTITLE9=Idol
EXTD=
EXTT0=
EXTT1=
EXTT2=
EXTT3=
EXTT4=
EXTT5=
EXTT6=
EXTT7=
EXTT8=
EXTT9=
PLAYORDER=
